HIERARCHY
ROOT joint_0
{
	OFFSET 0.000000 0.000000 0.000000
	CHANNELS 6 Xposition Yposition Zposition Zrotation Yrotation Xrotation 
	JOINT joint_1
	{
		OFFSET 4.520508 -1.939880 86.268921
		CHANNELS 3 Zrotation Yrotation Xrotation
		JOINT joint_2
		{
			OFFSET -4.459717 -0.438538 78.934082
			CHANNELS 3 Zrotation Yrotation Xrotation
			JOINT joint_3
			{
				OFFSET -5.197754 -0.781128 78.796997
				CHANNELS 3 Zrotation Yrotation Xrotation
				JOINT joint_4
				{
					OFFSET 2.952026 -3.710571 109.812988
					CHANNELS 3 Zrotation Yrotation Xrotation
					JOINT joint_5
					{
						OFFSET 24.716797 -5.488037 87.903931
						CHANNELS 3 Zrotation Yrotation Xrotation
						End Site
						{
							OFFSET 0.000000 0.000000 0.000000
						}
					}
				}
				JOINT joint_6
				{
					OFFSET -3.154419 -25.484680 60.934937
					CHANNELS 3 Zrotation Yrotation Xrotation
					JOINT joint_7
					{
						OFFSET -28.997192 -144.472229 -32.671997
						CHANNELS 3 Zrotation Yrotation Xrotation
						JOINT joint_8
						{
							OFFSET 19.867676 -18.614380 -249.897949
							CHANNELS 3 Zrotation Yrotation Xrotation
							JOINT joint_9
							{
								OFFSET 5.281982 -13.816650 -264.993042
								CHANNELS 3 Zrotation Yrotation Xrotation
								End Site
								{
									OFFSET 0.000000 0.000000 0.000000
								}
							}
						}
					}
				}
				JOINT joint_10
				{
					OFFSET 6.494995 21.336792 62.257935
					CHANNELS 3 Zrotation Yrotation Xrotation
					JOINT joint_11
					{
						OFFSET 31.106567 145.200745 -27.007935
						CHANNELS 3 Zrotation Yrotation Xrotation
						JOINT joint_12
						{
							OFFSET 29.119141 24.684326 -248.460083
							CHANNELS 3 Zrotation Yrotation Xrotation
							JOINT joint_13
							{
								OFFSET 21.220093 31.248413 -262.703979
								CHANNELS 3 Zrotation Yrotation Xrotation
								End Site
								{
									OFFSET 0.000000 0.000000 0.000000
								}
							}
						}
					}
				}
			}
		}
	}
	JOINT joint_14
	{
		OFFSET -15.458496 -88.861694 -109.593018
		CHANNELS 3 Zrotation Yrotation Xrotation
		JOINT joint_15
		{
			OFFSET -6.193359 6.837952 -506.710999
			CHANNELS 3 Zrotation Yrotation Xrotation
			JOINT joint_16
			{
				OFFSET -35.096680 13.289795 -435.677025
				CHANNELS 3 Zrotation Yrotation Xrotation
				JOINT joint_17
				{
					OFFSET 158.491211 -33.916565 -71.771002
					CHANNELS 3 Zrotation Yrotation Xrotation
					End Site
					{
						OFFSET 0.000000 0.000000 0.000000
					}
				}
			}
		}
	}
	JOINT joint_18
	{
		OFFSET 23.116943 86.574158 -110.082031
		CHANNELS 3 Zrotation Yrotation Xrotation
		JOINT joint_19
		{
			OFFSET -6.125854 -0.283569 -506.757019
			CHANNELS 3 Zrotation Yrotation Xrotation
			JOINT joint_20
			{
				OFFSET -63.240234 11.589966 -432.537994
				CHANNELS 3 Zrotation Yrotation Xrotation
				JOINT joint_21
				{
					OFFSET 156.074219 -41.487305 -73.077999
					CHANNELS 3 Zrotation Yrotation Xrotation
					End Site
					{
						OFFSET 0.000000 0.000000 0.000000
					}
				}
			}
		}
	}
}
MOTION
Frames: 15
Frame Time: 0.016667
-2001.765381 762.635864 1141.357056 15.842390 1.924275 0.134773 -0.691892 -1.518470 -1.161036 -0.616584 0.291166 0.208425 -0.643685 -0.244836 -0.130499 -0.874460 5.073032 3.900208 0.000000 0.000000 0.000000 3.951547 -0.204005 -0.637347 0.344590 0.033012 2.315730 -0.060120 -1.124450 -3.907436 0.000000 0.000000 0.000000 -0.315228 0.110673 0.075051 -0.133339 0.219729 -0.244367 -0.231360 -1.981439 0.742884 0.000000 0.000000 0.000000 -1.793115 -0.664094 0.142118 -1.797805 -1.630563 -0.496530 -1.706038 1.330366 -0.488762 0.000000 0.000000 0.000000 0.333864 0.628550 0.277274 0.368148 -4.059454 -1.259238 0.376880 1.173291 0.488527 0.000000 0.000000 0.000000 
-2002.807861 762.276550 1141.359985 15.830553 1.906098 0.125160 -0.701980 -1.457419 -1.147025 -0.627379 0.281242 0.206522 -0.654009 -0.234756 -0.128770 -0.878547 5.069094 3.911429 0.000000 0.000000 0.000000 3.931774 -0.169881 -0.626568 0.343057 0.062820 2.324278 -0.058109 -1.151670 -3.902479 0.000000 0.000000 0.000000 -0.320331 0.145812 0.060756 -0.133504 0.258688 -0.271328 -0.220369 -1.943462 0.804294 0.000000 0.000000 0.000000 -1.791222 -0.707399 0.153031 -1.795072 -1.635394 -0.488931 -1.702123 1.374454 -0.477567 0.000000 0.000000 0.000000 0.341156 0.518396 0.271526 0.372285 -3.916102 -1.219292 0.375995 1.133180 0.477450 0.000000 0.000000 0.000000 
-2003.866821 761.940735 1141.364014 15.802449 1.884207 0.115163 -0.707992 -1.384367 -1.126168 -0.634510 0.269426 0.205113 -0.660643 -0.223941 -0.126669 -0.878780 5.067501 3.910383 0.000000 0.000000 0.000000 3.919829 -0.137185 -0.622475 0.341721 0.091323 2.334085 -0.056349 -1.180418 -3.903140 0.000000 0.000000 0.000000 -0.322002 0.175251 0.045709 -0.134844 0.292576 -0.305798 -0.209276 -1.904131 0.864973 0.000000 0.000000 0.000000 -1.784325 -0.752954 0.160807 -1.787208 -1.630775 -0.479227 -1.693472 1.415129 -0.464954 0.000000 0.000000 0.000000 0.353790 0.406826 0.261469 0.381729 -3.759408 -1.173772 0.380063 1.087717 0.467276 0.000000 0.000000 0.000000 
-2004.900146 761.621521 1141.368042 15.755029 1.859062 0.108089 -0.708600 -1.310754 -1.105058 -0.636303 0.257866 0.203454 -0.661967 -0.212503 -0.125132 -0.876861 5.072899 3.903140 0.000000 0.000000 0.000000 3.908341 -0.108425 -0.619191 0.340374 0.116593 2.340411 -0.055960 -1.189397 -3.903948 0.000000 0.000000 0.000000 -0.321299 0.203680 0.034318 -0.136196 0.325746 -0.340104 -0.201379 -1.876048 0.907405 0.000000 0.000000 0.000000 -1.771170 -0.802090 0.163126 -1.772889 -1.610165 -0.468314 -1.679191 1.445253 -0.452043 0.000000 0.000000 0.000000 0.372300 0.312490 0.250834 0.397633 -3.624412 -1.136142 0.390705 1.050941 0.462499 0.000000 0.000000 0.000000 
-2005.893188 761.320435 1141.375000 15.680002 1.827981 0.105144 -0.702849 -1.233850 -1.085838 -0.631660 0.242067 0.202147 -0.656809 -0.197980 -0.123596 -0.871895 5.087340 3.887233 0.000000 0.000000 0.000000 3.903250 -0.086022 -0.616199 0.339078 0.137981 2.341712 -0.057814 -1.164937 -3.904346 0.000000 0.000000 0.000000 -0.311786 0.233880 0.028334 -0.137226 0.359770 -0.372170 -0.198650 -1.867079 0.921420 0.000000 0.000000 0.000000 -1.749082 -0.851976 0.158117 -1.749514 -1.572693 -0.455684 -1.656785 1.462206 -0.438262 0.000000 0.000000 0.000000 0.398791 0.246042 0.239655 0.422267 -3.524176 -1.109000 0.410392 1.027687 0.465562 0.000000 0.000000 0.000000 
-2006.862549 761.034729 1141.383057 15.585674 1.793152 0.105550 -0.691858 -1.154473 -1.067882 -0.621657 0.224817 0.201946 -0.646404 -0.181812 -0.123163 -0.865065 5.108197 3.866001 0.000000 0.000000 0.000000 3.899176 -0.068091 -0.613351 0.337812 0.155909 2.339222 -0.061058 -1.120602 -3.905378 0.000000 0.000000 0.000000 -0.299933 0.262654 0.026274 -0.138220 0.392736 -0.404083 -0.199021 -1.869140 0.917265 0.000000 0.000000 0.000000 -1.720881 -0.904978 0.147160 -1.719846 -1.519358 -0.441330 -1.628849 1.468069 -0.424345 0.000000 0.000000 0.000000 0.431139 0.197291 0.227549 0.453218 -3.445810 -1.089659 0.436356 1.013353 0.473945 0.000000 0.000000 0.000000 
-2007.816162 760.751648 1141.386963 15.488909 1.761637 0.110096 -0.681794 -1.082591 -1.054202 -0.612399 0.210104 0.200777 -0.636642 -0.167913 -0.121174 -0.856833 5.133912 3.840862 0.000000 0.000000 0.000000 3.893394 -0.051928 -0.608201 0.336183 0.173276 2.331594 -0.064164 -1.076789 -3.904948 0.000000 0.000000 0.000000 -0.287359 0.289866 0.022827 -0.138889 0.422914 -0.432151 -0.200574 -1.875268 0.905548 0.000000 0.000000 0.000000 -1.691992 -0.969497 0.131870 -1.689075 -1.447826 -0.427018 -1.600585 1.464082 -0.412389 0.000000 0.000000 0.000000 0.464008 0.154711 0.215963 0.484987 -3.386171 -1.080186 0.463005 1.008554 0.485185 0.000000 0.000000 0.000000 
-2008.762573 760.466248 1141.381958 15.389150 1.735928 0.120842 -0.672980 -1.019347 -1.046965 -0.604134 0.195409 0.198477 -0.627812 -0.154962 -0.118985 -0.848067 5.164150 3.814694 0.000000 0.000000 0.000000 3.886332 -0.038220 -0.597020 0.333963 0.190730 2.316654 -0.066856 -1.037792 -3.903328 0.000000 0.000000 0.000000 -0.274296 0.315068 0.019491 -0.138979 0.449923 -0.454828 -0.203634 -1.886078 0.883203 0.000000 0.000000 0.000000 -1.662845 -1.054479 0.110061 -1.657324 -1.345927 -0.412031 -1.572540 1.442697 -0.404259 0.000000 0.000000 0.000000 0.497448 0.120552 0.205664 0.517742 -3.356740 -1.086841 0.490344 1.017840 0.500493 0.000000 0.000000 0.000000 
-2009.693970 760.182312 1141.373047 15.287266 1.713632 0.135907 -0.665637 -0.963827 -1.045153 -0.596999 0.183295 0.196593 -0.620124 -0.143362 -0.115902 -0.838070 5.198576 3.785143 0.000000 0.000000 0.000000 3.879100 -0.026871 -0.583331 0.331410 0.207381 2.296772 -0.069471 -0.999019 -3.900827 0.000000 0.000000 0.000000 -0.259826 0.338202 0.015137 -0.138768 0.473628 -0.473880 -0.207745 -1.900331 0.853742 0.000000 0.000000 0.000000 -1.633276 -1.151124 0.083792 -1.624689 -1.225675 -0.396897 -1.544299 1.411261 -0.398191 0.000000 0.000000 0.000000 0.531418 0.092310 0.195797 0.551285 -3.345691 -1.103647 0.518202 1.036561 0.518554 0.000000 0.000000 0.000000 
-2010.598511 759.901123 1141.369019 15.205306 1.691995 0.148797 -0.664557 -0.912115 -1.042073 -0.596133 0.170689 0.195234 -0.618756 -0.130254 -0.113507 -0.828491 5.232593 3.756923 0.000000 0.000000 0.000000 3.865038 -0.015132 -0.570567 0.328859 0.222689 2.276912 -0.071340 -0.969308 -3.896536 0.000000 0.000000 0.000000 -0.250422 0.357036 0.006791 -0.138675 0.492514 -0.490319 -0.210452 -1.910226 0.833364 0.000000 0.000000 0.000000 -1.609891 -1.238854 0.061097 -1.598475 -1.120135 -0.381746 -1.521556 1.390899 -0.392241 0.000000 0.000000 0.000000 0.559279 0.054833 0.187272 0.578568 -3.317973 -1.116307 0.539791 1.052632 0.532970 0.000000 0.000000 0.000000 
-2011.466064 759.621582 1141.371948 15.156934 1.669461 0.156906 -0.676554 -0.865853 -1.034180 -0.608660 0.160217 0.192211 -0.630684 -0.119377 -0.110662 -0.818649 5.269900 3.728462 0.000000 0.000000 0.000000 3.845290 -0.001906 -0.559700 0.326282 0.237674 2.257765 -0.072173 -0.951623 -3.889057 0.000000 0.000000 0.000000 -0.242831 0.374738 -0.009312 -0.138413 0.507940 -0.502077 -0.210472 -1.911596 0.829947 0.000000 0.000000 0.000000 -1.596758 -1.307313 0.045779 -1.583111 -1.044309 -0.367246 -1.508078 1.390328 -0.386250 0.000000 0.000000 0.000000 0.577089 0.001670 0.181461 0.595530 -3.257901 -1.120715 0.550984 1.060733 0.540391 0.000000 0.000000 0.000000 
-2012.306519 759.343689 1141.380005 15.128602 1.647555 0.162513 -0.695550 -0.824193 -1.024546 -0.628279 0.151988 0.188874 -0.649711 -0.110015 -0.107686 -0.808907 5.308154 3.700579 0.000000 0.000000 0.000000 3.821043 0.011858 -0.549700 0.323645 0.252071 2.238383 -0.072303 -0.942351 -3.879603 0.000000 0.000000 0.000000 -0.238273 0.388911 -0.029857 -0.138194 0.518808 -0.511001 -0.208940 -1.907874 0.836077 0.000000 0.000000 0.000000 -1.589970 -1.366550 0.034249 -1.574382 -0.983655 -0.352500 -1.500333 1.400846 -0.380483 0.000000 0.000000 0.000000 0.588833 -0.060859 0.177355 0.606315 -3.180817 -1.121158 0.556005 1.065753 0.544098 0.000000 0.000000 0.000000 
-2013.147339 759.067871 1141.399048 15.106583 1.626523 0.165521 -0.711063 -0.775359 -1.014525 -0.644286 0.141822 0.188053 -0.665263 -0.098773 -0.105090 -0.800533 5.337888 3.675799 0.000000 0.000000 0.000000 3.792281 0.025694 -0.543985 0.321188 0.264147 2.221331 -0.071733 -0.941997 -3.868470 0.000000 0.000000 0.000000 -0.243014 0.391168 -0.050676 -0.139105 0.519856 -0.522811 -0.207071 -1.903338 0.845587 0.000000 0.000000 0.000000 -1.584645 -1.424271 0.024770 -1.567152 -0.927809 -0.336530 -1.493677 1.418387 -0.373703 0.000000 0.000000 0.000000 0.598129 -0.129240 0.172785 0.614535 -3.095388 -1.114522 0.559106 1.070548 0.546844 0.000000 0.000000 0.000000 
-2014.004028 758.790405 1141.433960 15.090821 1.607942 0.164187 -0.720889 -0.716862 -1.000651 -0.654793 0.130751 0.187833 -0.675513 -0.087965 -0.105074 -0.794696 5.357255 3.657697 0.000000 0.000000 0.000000 3.757102 0.040092 -0.541700 0.318884 0.273949 2.207548 -0.070190 -0.953540 -3.854067 0.000000 0.000000 0.000000 -0.261087 0.377727 -0.067867 -0.141867 0.509858 -0.542596 -0.203813 -1.894308 0.864975 0.000000 0.000000 0.000000 -1.580594 -1.483069 0.018262 -1.561178 -0.876975 -0.317713 -1.487722 1.445108 -0.365274 0.000000 0.000000 0.000000 0.604405 -0.209081 0.168161 0.619527 -2.995873 -1.097352 0.559788 1.074340 0.548187 0.000000 0.000000 0.000000 
-2014.859863 758.515015 1141.479980 15.081407 1.590553 0.160193 -0.727146 -0.652268 -0.985731 -0.661727 0.118963 0.188512 -0.682144 -0.076198 -0.103795 -0.789957 5.368180 3.641795 0.000000 0.000000 0.000000 3.716440 0.054862 -0.544215 0.316771 0.281375 2.196244 -0.068010 -0.973553 -3.838184 0.000000 0.000000 0.000000 -0.288686 0.352716 -0.086204 -0.145648 0.490110 -0.564583 -0.200176 -1.883911 0.887265 0.000000 0.000000 0.000000 -1.578144 -1.540370 0.013918 -1.556846 -0.831362 -0.297641 -1.482989 1.478701 -0.355926 0.000000 0.000000 0.000000 0.608211 -0.294960 0.163269 0.621974 -2.888170 -1.073412 0.558597 1.078021 0.548621 0.000000 0.000000 0.000000 
